<?xml version="1.0" encoding="utf-8"?>
<!-- Generator: Adobe Illustrator 21.0.2, SVG Export Plug-In . SVG Version: 6.00 Build 0)  -->
<svg version="1.1" id="Layer_1" xmlns="http://www.w3.org/2000/svg" xmlns:xlink="http://www.w3.org/1999/xlink" x="0px" y="0px"
	 viewBox="0 0 15 12.2" style="enable-background:new 0 0 15 12.2;" xml:space="preserve">
<style type="text/css">
	.st0{fill-rule:evenodd;clip-rule:evenodd;}
</style>
<path class="st0" d="M1,0.5c1.6,2,3.7,3,6.3,3.2c0-0.1,0-0.2,0-0.2C7.1,2.2,7.7,1.1,8.8,0.4c1.1-0.7,2.6-0.5,3.6,0.4
	c0.1,0.1,0.2,0.2,0.4,0.1c0.5-0.2,1-0.4,1.5-0.6c0.1,0,0.2-0.1,0.3-0.1c-0.2,0.7-0.6,1.2-1.1,1.7c0.2-0.1,0.5-0.1,0.7-0.2
	c0.2-0.1,0.5-0.2,0.8-0.3c-0.1,0.2-0.1,0.3-0.2,0.4C14.4,2.3,14,2.6,13.6,3c-0.1,0.1-0.2,0.2-0.2,0.3c0,1.2-0.2,2.4-0.7,3.6
	c-0.4,0.9-0.8,1.7-1.4,2.4c-0.8,1-1.9,1.8-3.1,2.3c-0.6,0.3-1.3,0.4-2,0.6c-0.6,0.1-1.3,0.1-1.9,0.1c-1.1,0-2.2-0.3-3.2-0.8
	c-0.4-0.2-0.7-0.4-1.1-0.6c1.6,0.1,3.1-0.3,4.4-1.3C3.4,9.5,2.6,9,2,8.2C1.8,8,1.8,7.7,1.6,7.4c0.4,0,0.8,0,1.2,0
	C1.2,6.8,0.5,5.3,0.6,4.3C1,4.4,1.4,4.6,1.7,4.7c0,0,0,0,0-0.1c-0.6-0.5-1-1.1-1.1-1.9C0.5,1.9,0.7,1.2,1,0.5z"/>
</svg>
