<?xml version="1.0" encoding="utf-8"?>
<!-- Generator: Adobe Illustrator 21.0.2, SVG Export Plug-In . SVG Version: 6.00 Build 0)  -->
<svg version="1.1" id="Layer_1" xmlns="http://www.w3.org/2000/svg" xmlns:xlink="http://www.w3.org/1999/xlink" x="0px" y="0px"
	 viewBox="0 0 15 13" style="enable-background:new 0 0 15 13;" xml:space="preserve">
<style type="text/css">
	.st0{fill-rule:evenodd;clip-rule:evenodd;}
</style>
<path class="st0" d="M0.7,4.4C0.5,4.1,0.3,3.8,0,3.4c1.2-1,2.4-2.1,3.7-3c1-0.7,2-0.3,2.4,0.8c0.4,1.1,0.5,2.2,0.8,3.3
	c0.2,1,0.4,2,0.7,3C8,8.5,8.4,8.6,9,7.8c0.5-0.7,1-1.5,1.4-2.2c0.3-0.6,0.6-1.4,0.1-2c-0.4-0.4-1.1-0.3-1.7-0.5
	c0.2-2,2.6-3.7,4.7-3.1c0.8,0.2,1.2,0.7,1.4,1.5C15.2,2.8,15,3.9,14.4,5c-1.3,2.7-3,5-5.2,6.9c-2.2,1.8-3.8,1.3-4.7-1.4
	C4.1,9,3.8,7.6,3.3,6.1C3.2,5.6,3,5,2.8,4.6c-0.5-1-0.7-1-1.6-0.5C1.1,4.2,0.9,4.3,0.7,4.4z"/>
</svg>
