<svg height="20" viewBox="0 0 28 20" width="28" xmlns="http://www.w3.org/2000/svg"><g fill="none"><path d="m0 0h28v20h-28z" fill="#4658a9"/><path d="m4.22106528 6.54v2.46h1.56187425v-2.51625l2.68722467 2.51625h1.5298358v-1.125l-2.80336404-2.625h2.80336404v-1.5h-2.80336404l2.80336404-2.625v-1.125h-1.53384061l-2.68321986 2.5125v-2.5125h-1.56187425v2.46l-2.61914297-2.46s-.53397411 0-1.60192231 0v.98611111l2.86744093 2.75638889h-2.86744093v1.5h2.86744093l-2.86744093 2.685v1.06125h1.60192231z" fill="#fff"/><path d="m4.63141026 5.50438048v3.49561952h.76121795v-3.55193992l3.77403846 3.54818523h.83333333v-.46933667l-3.91826923-3.67209012h3.91826923v-.72465582h-3.91826923l3.91826923-3.67209011v-.45807259h-.83333333l-3.7860577 3.54818523v-3.54818523h-.76121794v3.49186483l-3.72596154-3.49186483s-.29780983 0-.89342949 0v.34722222l3.97836538 3.78294048h-3.97836538v.73216521h3.97836538l-3.97836538 3.72841051v.40926158h.89342949z" fill="#ec5463"/><g fill="#fff"><path d="m17.6895222 4.95107621c-.1368617.09896064-.2181233.04302636-.175354-.12477647l.1496925-.61527705c.0342468-.18386643-.0251394-.37278406-.1582464-.5034085l-.4276927-.39153994c-.1283079-.11186856-.0940924-.20652656.0727077-.2108292h.6244315c.1787219-.01453195.3317226-.13462373.3892004-.30548721l.1967387-.67551397c.0470462-.16350019.1325847-.16780283.1881848 0l.235231.66260606c.0717091.17468583.2398481.28970765.4276927.2925793h.6372623c.1668001 0 .2010156.09465801.0727077.20652656l-.4832928.43026367c-.1312545.12972631-.1862904.31862458-.1454155.49910587l.1539694.54213222c.0470462.1635002-.0299385.22373711-.1753541.13768438l-.5175082-.32269776c-.1567279-.09421135-.3522265-.09421135-.5089544 0z"/><path d="m22.6895222 6.95107621c-.1368617.09896064-.2181233.04302636-.175354-.12477647l.1496925-.61527705c.0342468-.18386643-.0251394-.37278406-.1582464-.5034085l-.4276927-.39153994c-.1283079-.11186856-.0940924-.20652656.0727077-.2108292h.6244315c.1787219-.01453194.3317226-.13462374.3892004-.30548721l.1967387-.67551397c.0470462-.16350019.1325847-.16780283.1881848 0l.235231.66260606c.0717091.17468585.2398481.28970768.4276927.2925793h.6372623c.1668001 0 .2010156.09465801.0727077.20652656l-.4832928.43026367c-.1312545.12972631-.1862904.31862458-.1454155.49910587l.1539694.54213222c.0470462.1635002-.0299385.22373711-.1753541.13768438l-.5175082-.32269776c-.1567279-.09421135-.3522265-.09421135-.5089544 0z"/><path d="m13.6895222 9.95107621c-.1368617.09896069-.2181233.04302636-.175354-.12477647l.1496925-.61527705c.0342468-.18386643-.0251394-.37278406-.1582464-.5034085l-.4276927-.39153994c-.1283079-.11186856-.0940924-.20652656.0727077-.2108292h.6244315c.1787219-.01453194.3317226-.13462374.3892004-.30548721l.1967387-.67551397c.0470462-.16350019.1325847-.16780283.1881848 0l.235231.66260606c.0717091.17468585.2398481.28970768.4276927.2925793h.6372623c.1668001 0 .2010156.09465801.0727077.20652656l-.4832928.43026367c-.1312545.12972631-.1862904.31862458-.1454155.49910587l.1539694.54213222c.0470462.1635002-.0299385.22373711-.1753541.13768438l-.5175082-.32269776c-.1567279-.09421135-.3522265-.09421135-.5089544 0z"/><path d="m4.95613757 16.9358586c-.18226118.1290992-.28895065.0578721-.23560592-.1647127l.19559737-.8191118c.04472791-.2443044-.03532982-.4948394-.21337894-.6677541l-.60012827-.5208483c-.168925-.1469059-.12447105-.2715534.09779868-.2804567l.84017957-.0222585c.24017685-.017415.44670055-.176909.52455656-.4051042l.26227828-.8903389c.06223553-.2181331.17781579-.2225848.2533875 0l.31562301.8903389c.09188328.2250028.30446614.3773102.54678353.3917491h.85351576c.22226973 0 .27116907.1246474.10224408.2760051l-.64902761.5698169c-.17750301.1729059-.25170491.4262254-.19559736.6677541l.20893354.7211745c.06223553.2181331-.04445394.2982636-.23560591.1780678l-.69348155-.4451694c-.20993434-.1235353-.47021104-.1235353-.68014537 0z"/><path d="m20.484073 12.9679455c-.0928379.0647049-.1453115.0283084-.1210929-.0808812l.1009108-.4044055c.0215859-.1230774-.0192538-.2488589-.1089837-.3356566l-.3027323-.2628636c-.0847651-.072793-.0645829-.1374979.0484372-.141542h.4036431c.1207753-.0099409.2239966-.0910829.262368-.2062468l.1332022-.4529343c.0322915-.1091895.0888015-.1132335.1291658 0l.1614573.4448462c.0460948.1132427.1526701.1901847.2744773.1981587h.4318982c.11302 0 .1372386.0647049.0524736.1374979l-.326951.2871279c-.0758665.0926003-.1001387.2172302-.0645829.3316126l.1049473.363965c.0322914.1091895-.0201822.1496301-.1170565.0930133l-.3511696-.218379c-.1059265-.0622507-.2371701-.0622507-.3430966 0z"/></g></g></svg>